<?xml version="1.0" encoding="utf-8"?>
<!-- Generator: Adobe Illustrator 24.1.1, SVG Export Plug-In . SVG Version: 6.00 Build 0)  -->
<svg version="1.1" id="Layer_1" xmlns="http://www.w3.org/2000/svg" xmlns:xlink="http://www.w3.org/1999/xlink" x="0px" y="0px"
	 viewBox="0 0 512 512" style=" enable-background:new 0 0 512 512;" xml:space="preserve"  fill="#FD0988">
<g>
	<path d="M192,384l-5.7-1.4c-4.3-2.2-7.1-6.6-7.1-11.4V140.8c0-4.8,2.7-9.3,7.1-11.4c4.3-2.2,9.5-1.7,13.4,1.2l153.6,115.2
		c3.2,2.4,5.1,6.2,5.1,10.2s-1.9,7.8-5.1,10.2L199.7,381.4C197.4,383.1,194.7,384,192,384z M204.8,166.4v179.2L324.3,256
		L204.8,166.4z"/>
	<path d="M499.2,51.2H12.8C5.7,51.2,0,56.9,0,64v384c0,7.1,5.7,12.8,12.8,12.8h486.4c7.1,0,12.8-5.7,12.8-12.8V64
		C512,56.9,506.3,51.2,499.2,51.2z M76.8,281.6H25.6v-51.2h51.2V281.6z M76.8,204.8H25.6v-51.2h51.2V204.8z M25.6,307.2h51.2v51.2
		H25.6V307.2z M102.4,76.8h307.2v358.4H102.4V76.8z M435.2,230.4h51.2v51.2h-51.2V230.4z M435.2,204.8v-51.2h51.2v51.2H435.2z
		 M435.2,307.2h51.2v51.2h-51.2V307.2z M486.4,128h-51.2V76.8h51.2V128z M76.8,76.8V128H25.6V76.8H76.8z M25.6,384h51.2v51.2H25.6
		V384z M435.2,435.2V384h51.2v51.2H435.2z"/>
</g>
</svg>
